<svg width="64" height="61" viewBox="0 0 64 61" fill="none" xmlns="http://www.w3.org/2000/svg">
<path d="M51.3827 26.5465L47.9697 20.6385L51.3827 14.7305H58.2057L61.6167 20.6385L58.2057 26.5465H51.3827Z" fill="url(#paint0_linear_130_1934)"/>
<path d="M25.8511 13.1632L23.0791 8.37017L25.8511 3.57617H31.3831L34.1521 8.37017L31.3831 13.1632H25.8511Z" fill="url(#paint1_linear_130_1934)"/>
<path d="M59.4365 5.05L57.9805 2.524L59.4365 0H62.3525L63.8115 2.524L62.3525 5.05H59.4365Z" fill="url(#paint2_linear_130_1934)"/>
<path d="M46.0764 8.34721L43.7363 4.29521L46.0764 0.241211H50.7533L53.0953 4.29521L50.7533 8.34721H46.0764Z" fill="url(#paint3_linear_130_1934)"/>
<path d="M35.5244 27.5371C35.5244 26.7791 34.9074 26.1621 34.1484 26.1621C33.3914 26.1621 32.7744 26.7791 32.7744 27.5371C32.7744 28.2941 33.3914 28.9111 34.1484 28.9111C34.9074 28.9111 35.5244 28.2941 35.5244 27.5371Z" fill="url(#paint4_linear_130_1934)"/>
<path d="M39.536 41.6741L44.548 49.9031L47.874 50.8171L56.269 36.2781L53.268 31.0811H48.361L42.287 20.5601L44.74 16.3101L42.203 11.9141H37.484L34.134 17.7131H23.098L19.751 11.9141H14.066L9.19501 20.3521L15.592 30.2841C15.648 30.2821 15.699 30.2671 15.756 30.2671C17.649 30.2671 19.192 31.8081 19.192 33.7031C19.192 35.5991 17.65 37.1401 15.756 37.1401C13.861 37.1401 12.32 35.5991 12.32 33.7031C12.32 32.8721 12.63 32.1201 13.122 31.5251L7.646 23.0351L0 36.2771L7.38101 49.0621L22.879 38.8661L24.817 31.8111L25.274 31.5271C25.274 31.5271 30.6 28.2191 30.773 28.1131C30.74 27.9241 30.713 27.7331 30.713 27.5361C30.713 25.6411 32.255 24.1001 34.148 24.1001C36.044 24.1001 37.586 25.6411 37.586 27.5361C37.586 29.4311 36.044 30.9721 34.148 30.9721C33.445 30.9721 32.789 30.7571 32.243 30.3921C32.04 30.5561 31.825 30.6961 31.65 30.8041L27.184 33.5751L25.248 40.6211L8.76001 51.4471L12.587 58.0771L25.699 49.7891C25.697 49.7361 25.682 49.6851 25.682 49.6321C25.682 47.7371 27.225 46.1951 29.117 46.1951C31.012 46.1951 32.553 47.7371 32.553 49.6321C32.553 51.5251 31.011 53.0671 29.117 53.0671C28.284 53.0671 27.527 52.7571 26.932 52.2601L13.961 60.4591L14.066 60.6421H42.201L46.452 53.2771L42.783 52.2681L42.498 51.8131C42.498 51.8131 36.947 42.7171 36.843 42.5531C36.655 42.5851 36.463 42.6121 36.266 42.6121C34.374 42.6121 32.831 41.0701 32.831 39.1761C32.831 37.2801 34.373 35.7391 36.266 35.7391C38.162 35.7391 39.702 37.2801 39.702 39.1761C39.702 39.8791 39.489 40.5341 39.124 41.0811C39.288 41.2851 39.427 41.5001 39.536 41.6741Z" fill="url(#paint5_linear_130_1934)"/>
<path d="M30.4921 49.6318C30.4921 48.8738 29.8771 48.2568 29.1181 48.2568C28.3611 48.2568 27.7441 48.8738 27.7441 49.6318C27.7441 50.3888 28.3611 51.0048 29.1181 51.0048C29.8761 51.0048 30.4921 50.3888 30.4921 49.6318Z" fill="url(#paint6_linear_130_1934)"/>
<path d="M17.1299 33.7041C17.1299 32.9471 16.5129 32.3311 15.7559 32.3311C14.9969 32.3311 14.3799 32.9471 14.3799 33.7041C14.3799 34.4631 14.9969 35.0791 15.7559 35.0791C16.5129 35.0791 17.1299 34.4631 17.1299 33.7041Z" fill="url(#paint7_linear_130_1934)"/>
<path d="M34.8916 39.1767C34.8916 39.9347 35.5096 40.5507 36.2656 40.5507C37.0246 40.5507 37.6426 39.9347 37.6426 39.1767C37.6426 38.4187 37.0246 37.8027 36.2656 37.8027C35.5096 37.8027 34.8916 38.4187 34.8916 39.1767Z" fill="url(#paint8_linear_130_1934)"/>
<defs>
<linearGradient id="paint0_linear_130_1934" x1="54.793" y1="2.17348" x2="54.793" y2="56.7329" gradientUnits="userSpaceOnUse">
<stop stop-color="#8FFFFF"/>
<stop offset="0.5054" stop-color="#60A8FB"/>
<stop offset="1" stop-color="#3762FA"/>
</linearGradient>
<linearGradient id="paint1_linear_130_1934" x1="28.6157" y1="2.17297" x2="28.6157" y2="56.7304" gradientUnits="userSpaceOnUse">
<stop stop-color="#8FFFFF"/>
<stop offset="0.5054" stop-color="#60A8FB"/>
<stop offset="1" stop-color="#3762FA"/>
</linearGradient>
<linearGradient id="paint2_linear_130_1934" x1="60.8959" y1="2.1723" x2="60.8959" y2="56.7343" gradientUnits="userSpaceOnUse">
<stop stop-color="#8FFFFF"/>
<stop offset="0.5054" stop-color="#60A8FB"/>
<stop offset="1" stop-color="#3762FA"/>
</linearGradient>
<linearGradient id="paint3_linear_130_1934" x1="48.4157" y1="2.17241" x2="48.4157" y2="56.7313" gradientUnits="userSpaceOnUse">
<stop stop-color="#8FFFFF"/>
<stop offset="0.5054" stop-color="#60A8FB"/>
<stop offset="1" stop-color="#3762FA"/>
</linearGradient>
<linearGradient id="paint4_linear_130_1934" x1="34.1493" y1="2.1698" x2="34.1493" y2="56.7364" gradientUnits="userSpaceOnUse">
<stop stop-color="#8FFFFF"/>
<stop offset="0.5054" stop-color="#60A8FB"/>
<stop offset="1" stop-color="#3762FA"/>
</linearGradient>
<linearGradient id="paint5_linear_130_1934" x1="28.1342" y1="2.17266" x2="28.1342" y2="56.7324" gradientUnits="userSpaceOnUse">
<stop stop-color="#8FFFFF"/>
<stop offset="0.5054" stop-color="#60A8FB"/>
<stop offset="1" stop-color="#3762FA"/>
</linearGradient>
<linearGradient id="paint6_linear_130_1934" x1="29.1177" y1="2.18594" x2="29.1177" y2="56.7305" gradientUnits="userSpaceOnUse">
<stop stop-color="#8FFFFF"/>
<stop offset="0.5054" stop-color="#60A8FB"/>
<stop offset="1" stop-color="#3762FA"/>
</linearGradient>
<linearGradient id="paint7_linear_130_1934" x1="15.7552" y1="2.17134" x2="15.7552" y2="56.7344" gradientUnits="userSpaceOnUse">
<stop stop-color="#8FFFFF"/>
<stop offset="0.5054" stop-color="#60A8FB"/>
<stop offset="1" stop-color="#3762FA"/>
</linearGradient>
<linearGradient id="paint8_linear_130_1934" x1="36.2671" y1="2.17672" x2="36.2671" y2="56.7305" gradientUnits="userSpaceOnUse">
<stop stop-color="#8FFFFF"/>
<stop offset="0.5054" stop-color="#60A8FB"/>
<stop offset="1" stop-color="#3762FA"/>
</linearGradient>
</defs>
</svg>
